<svg width="1440" height="687" viewBox="0 0 1440 687" fill="none" xmlns="http://www.w3.org/2000/svg">
<path d="M405.902 466.029C403.479 461.183 400.687 456.548 397.526 452.175C372.347 417.462 327.467 403.081 271.208 411.667C188.085 424.31 36.3772 531.664 -42.6901 730.886C-43.5855 733.204 -42.4793 735.838 -40.1616 736.733L-27.3612 741.685C-25.0961 742.58 -22.515 741.474 -21.6195 739.209C23.7875 625.955 147.472 453.334 274.632 434.002C322.146 426.733 359.283 437.953 379.248 465.45C382.777 470.349 385.78 475.669 388.15 481.411C382.198 486.678 376.403 491.999 370.819 497.319C333.683 532.507 305.29 573.647 294.86 607.307C284.694 640.177 299.338 654.927 308.925 660.826C320.145 667.674 339.056 671.046 365.394 648.131C378.141 637.069 391.153 616.578 396.315 606.254C416.859 565.377 422.864 523.288 414.225 488.627C649.635 286.298 1142.63 87.9183 1625.52 22.863L1621.57 0.686279C1139.05 66.1103 646.422 263.541 405.902 466.029ZM376.034 596.087C372.084 603.989 360.495 622.373 350.486 631.064C337.633 642.232 327.625 645.708 320.672 641.494C318.038 639.861 309.978 634.962 316.457 613.997C325.623 584.34 352.383 545.887 386.359 513.754C389.045 511.226 391.785 508.644 394.576 506.116C398 533.086 391.785 564.797 376.034 596.087Z" fill="#F5F5F5"/>
</svg>
